<?xml version="1.0" encoding="UTF-8"?><svg id="Layer_2" xmlns="http://www.w3.org/2000/svg" viewBox="0 0 1000 177.44"><defs><style>.cls-1{fill:red;}.cls-2{fill:#241f20;}</style></defs><g id="Logo_files"><g id="siege-media-logo"><path id="_Compound_Path_" class="cls-1" d="M2.48,68.9c0,14.81,9.84,24.65,28.88,28.98l18.67,4.23c9.2,2.21,12.69,4.97,12.69,10.21,0,6.62-6.53,10.76-17.2,10.76s-18.03-4.78-19.32-13.34H0c1.38,19.5,18.12,32.38,44.8,32.38s44.61-12.97,44.61-32.66c0-15.09-8.09-22.9-28.42-27.5l-19.04-4.14c-9.11-2.12-13.52-5.52-13.52-10.58,0-6.53,6.44-10.85,16.1-10.85,10.3,0,17.02,5.06,17.57,13.06h24.84c-.37-19.32-17.02-32.1-42.04-32.1S2.48,49.86,2.48,68.9ZM103.85,140.37h26.86V39.09h-26.86v101.28ZM117.28,28.06c8,0,14.53-6.07,14.53-14.07S125.29,0,117.28,0s-14.44,5.98-14.44,13.98,6.53,14.07,14.44,14.07ZM194.55,57.4c-12.23,0-21.25,8.92-22.17,21.89h43.69c-.46-13.25-9.11-21.89-21.53-21.89ZM216.45,109.47h24.74c-2.94,19.59-21.25,32.66-45.9,32.66-30.82,0-49.67-19.78-49.67-51.97s18.95-52.8,48.66-52.8,47.74,19.5,47.74,50.32v8.28h-69.91v1.66c0,14.63,9.47,24.47,23.64,24.47,10.12,0,18.12-4.78,20.7-12.6ZM302.92,118.94c13.98,0,23-11.22,23-29.34s-9.01-29.99-23-29.99-22.72,11.59-22.72,29.9,8.74,29.44,22.72,29.44ZM302.64,177.44c-26.58,0-45.26-11.68-46.64-29.9h26.49c1.75,6.72,10.21,10.95,20.79,10.95,13.61,0,22.54-6.99,22.54-18.4v-18.12h-.55c-4.88,10.85-16.74,17.75-31.37,17.75-24.65,0-41.21-19.13-41.21-50.32s16.01-51.51,41.67-51.51c14.53,0,26.03,7.27,31.37,18.49h.46v-17.29h26.49v98.98c0,24.1-19.59,39.37-50.04,39.37ZM416.06,57.4c-12.23,0-21.25,8.92-22.17,21.89h43.69c-.46-13.25-9.11-21.89-21.53-21.89ZM437.95,109.47h24.74c-2.94,19.59-21.25,32.66-45.9,32.66-30.82,0-49.67-19.78-49.67-51.97s18.95-52.8,48.66-52.8,47.74,19.5,47.74,50.32v8.28h-69.91v1.66c0,14.63,9.47,24.47,23.64,24.47,10.12,0,18.12-4.78,20.7-12.6Z"/><path id="_Compound_Path_-2" class="cls-2" d="M477.97,140.37h26.86v-60.9c0-11.5,7.36-19.59,17.94-19.59s16.65,6.53,16.65,17.39v63.1h25.94v-61.26c0-11.5,7.08-19.23,17.66-19.23s16.93,6.53,16.93,18.4v62.09h26.86v-68.81c0-20.42-13.34-33.94-33.21-33.94-14.72,0-26.86,8-31.46,20.7h-.55c-3.4-13.25-13.71-20.7-28.24-20.7-13.52,0-24.56,7.63-28.88,19.87h-.55v-18.4h-25.94v101.28ZM689.72,57.4c-12.23,0-21.25,8.92-22.17,21.89h43.69c-.46-13.25-9.11-21.89-21.53-21.89ZM711.62,109.47h24.74c-2.94,19.59-21.25,32.66-45.9,32.66-30.82,0-49.67-19.78-49.67-51.97s18.95-52.8,48.66-52.8,47.74,19.5,47.74,50.32v8.28h-69.91v1.66c0,14.63,9.47,24.47,23.64,24.47,10.12,0,18.12-4.78,20.7-12.6ZM789.35,141.57c-25.2,0-41.49-20.05-41.49-51.97s16.37-51.7,41.58-51.7c14.63,0,25.94,7.27,31,18.49h.55V1.29h26.86v139.09h-26.49v-17.29h-.46c-4.97,11.13-16.65,18.49-31.55,18.49ZM798.27,59.61c-13.98,0-22.9,11.68-22.9,30.08s8.92,30.17,22.9,30.17,22.9-11.77,22.9-30.08-9.01-30.17-22.9-30.17ZM866.99,140.37h26.86V39.09h-26.86v101.28ZM880.42,28.06c8,0,14.53-6.07,14.53-14.07s-6.53-13.98-14.53-13.98-14.44,5.98-14.44,13.98,6.53,14.07,14.44,14.07ZM951.25,121.98c12.42,0,22.35-7.73,22.35-18.77v-7.45l-21.25,1.47c-11.22.74-17.2,5.15-17.2,12.6s6.35,12.14,16.1,12.14ZM942.51,141.57c-19.5,0-34.13-12.23-34.13-30.36s14.07-28.79,39.92-30.36l25.3-1.56v-6.72c0-9.75-6.72-15.09-17.75-15.09-9.75,0-16.56,5.15-17.85,12.51h-24.56c.74-19.32,18.21-32.66,43.51-32.66s43.05,13.34,43.05,33.58v69.45h-25.94v-15.64h-.55c-5.52,10.58-18.03,16.83-31,16.83Z"/></g></g></svg>