<?xml version="1.0" encoding="UTF-8"?><svg id="Layer_2" xmlns="http://www.w3.org/2000/svg" viewBox="0 0 48 48"><defs><style>.cls-1{fill:#ff2600;}.cls-2{fill:#fff;}.cls-3{fill:#1e1f23;}</style></defs><g id="Logo_files"><g id="sm-favicon"><rect class="cls-3" width="48" height="48"/><path class="cls-2" d="M20.69,16.55h3.94v2.37h.25c.63-1.79,2.24-2.91,4.27-2.91,2.17,0,3.65,1.08,4.27,2.91h.25c.71-1.75,2.49-2.91,4.64-2.91,3.08,0,4.99,2.04,4.99,5.27v10.78h-3.94v-9.6c0-1.85-.89-2.77-2.69-2.77s-2.83,1.19-2.83,2.84v9.53h-3.68v-9.77c0-1.65-1-2.6-2.67-2.6s-2.86,1.26-2.86,2.99v9.38h-3.94v-15.51Z"/><path class="cls-1" d="M11.45,15.94c3.89,0,6.18,1.63,6.41,4.56h-3.74c-.21-.99-1.14-1.6-2.64-1.6s-2.52.65-2.52,1.63c0,.75.65,1.21,2.07,1.53l2.88.63c2.97.65,4.31,1.9,4.31,4.2,0,3.06-2.74,5.06-6.75,5.06s-6.49-1.65-6.77-4.6h3.95c.31,1.04,1.29,1.64,2.9,1.64s2.65-.65,2.65-1.64c0-.75-.58-1.21-1.93-1.5l-2.78-.63c-2.97-.65-4.42-2.07-4.42-4.43,0-2.9,2.56-4.84,6.38-4.84Z"/></g></g></svg>